<mxfile host="app.diagrams.net" modified="2021-05-01T02:48:10.042Z" agent="5.0 (Macintosh; Intel Mac OS X 10_15_7) AppleWebKit/537.36 (KHTML, like Gecko) Chrome/90.0.4430.85 Safari/537.36" etag="gjO1-FwlK5J1c8KVpr5H" version="14.6.5" type="github">
  <diagram name="Page-1" id="e7e014a7-5840-1c2e-5031-d8a46d1fe8dd">
    <mxGraphModel dx="509" dy="960" grid="1" gridSize="10" guides="1" tooltips="1" connect="1" arrows="1" fold="1" page="1" pageScale="1" pageWidth="1169" pageHeight="826" background="#ffffff" math="0" shadow="0">
      <root>
        <mxCell id="0" />
        <mxCell id="1" parent="0" />
        <mxCell id="MXGUGje7pcyTLYK8HZzy-41" value="&lt;font style=&quot;font-size: 18px&quot;&gt;1&lt;/font&gt;" style="ellipse;whiteSpace=wrap;html=1;aspect=fixed;" vertex="1" parent="1">
          <mxGeometry x="1330" y="373" width="80" height="80" as="geometry" />
        </mxCell>
        <mxCell id="MXGUGje7pcyTLYK8HZzy-42" value="" style="endArrow=classic;html=1;entryX=0;entryY=0.5;entryDx=0;entryDy=0;" edge="1" parent="1" target="MXGUGje7pcyTLYK8HZzy-41">
          <mxGeometry width="50" height="50" relative="1" as="geometry">
            <mxPoint x="1230" y="413" as="sourcePoint" />
            <mxPoint x="1420" y="430" as="targetPoint" />
          </mxGeometry>
        </mxCell>
        <mxCell id="MXGUGje7pcyTLYK8HZzy-43" value="" style="endArrow=classic;html=1;entryX=0;entryY=0.5;entryDx=0;entryDy=0;" edge="1" parent="1">
          <mxGeometry width="50" height="50" relative="1" as="geometry">
            <mxPoint x="1410" y="412" as="sourcePoint" />
            <mxPoint x="1510" y="412" as="targetPoint" />
          </mxGeometry>
        </mxCell>
        <mxCell id="MXGUGje7pcyTLYK8HZzy-45" value="" style="endArrow=classic;html=1;entryX=0;entryY=0.5;entryDx=0;entryDy=0;" edge="1" parent="1">
          <mxGeometry width="50" height="50" relative="1" as="geometry">
            <mxPoint x="1590" y="412" as="sourcePoint" />
            <mxPoint x="1690" y="412" as="targetPoint" />
          </mxGeometry>
        </mxCell>
        <mxCell id="MXGUGje7pcyTLYK8HZzy-46" value="&lt;font style=&quot;font-size: 18px&quot;&gt;3&lt;/font&gt;" style="ellipse;whiteSpace=wrap;html=1;aspect=fixed;" vertex="1" parent="1">
          <mxGeometry x="1690" y="373" width="80" height="80" as="geometry" />
        </mxCell>
        <mxCell id="MXGUGje7pcyTLYK8HZzy-47" value="" style="curved=1;endArrow=classic;html=1;exitX=0.061;exitY=0.26;exitDx=0;exitDy=0;entryX=0.962;entryY=0.314;entryDx=0;entryDy=0;entryPerimeter=0;exitPerimeter=0;" edge="1" parent="1" source="MXGUGje7pcyTLYK8HZzy-48">
          <mxGeometry width="50" height="50" relative="1" as="geometry">
            <mxPoint x="1513.5199999999998" y="392.1199999999999" as="sourcePoint" />
            <mxPoint x="1586.96" y="398.1200000000001" as="targetPoint" />
            <Array as="points">
              <mxPoint x="1500" y="370" />
              <mxPoint x="1500" y="330" />
              <mxPoint x="1530" y="310" />
              <mxPoint x="1587" y="310" />
              <mxPoint x="1610" y="360" />
            </Array>
          </mxGeometry>
        </mxCell>
        <mxCell id="MXGUGje7pcyTLYK8HZzy-48" value="&lt;font style=&quot;font-size: 18px&quot;&gt;2&lt;/font&gt;" style="ellipse;shape=doubleEllipse;whiteSpace=wrap;html=1;aspect=fixed;" vertex="1" parent="1">
          <mxGeometry x="1510" y="373" width="80" height="80" as="geometry" />
        </mxCell>
      </root>
    </mxGraphModel>
  </diagram>
</mxfile>
